<?xml version="1.0" standalone="no"?>
<!DOCTYPE svg PUBLIC "-//W3C//DTD SVG 20010904//EN"
 "http://www.w3.org/TR/2001/REC-SVG-20010904/DTD/svg10.dtd">
<svg version="1.0" xmlns="http://www.w3.org/2000/svg"
 width="126.000000pt" height="102.000000pt" viewBox="0 0 126.000000 102.000000"
 preserveAspectRatio="xMidYMid meet">

<g transform="translate(0.000000,102.000000) scale(0.100000,-0.100000)"
fill="#000000" stroke="none">
<path d="M620 835 c-161 -46 -263 -177 -263 -340 0 -171 116 -310 287 -345
206 -42 416 132 416 346 0 221 -229 398 -440 339z m63 -127 c14 -22 15 -22 34
-5 20 17 53 23 53 10 0 -5 -11 -26 -23 -48 l-23 -40 -74 -3 -75 -2 -22 35
c-39 59 -25 84 26 48 23 -16 25 -16 40 5 21 28 45 28 64 0z m87 -155 c46 -64
71 -86 63 -53 -9 33 15 50 68 50 26 0 51 -5 55 -11 5 -9 8 -130 5 -225 -1 -14
-15 -28 -48 -44 -43 -22 -49 -22 -97 -10 -28 8 -88 13 -133 11 -104 -3 -158
12 -200 54 -27 27 -33 41 -33 74 0 51 28 109 82 167 l41 44 78 0 78 0 41 -57z"/>
<path d="M855 520 c3 -5 24 -10 46 -10 21 0 39 5 39 10 0 6 -21 10 -46 10 -27
0 -43 -4 -39 -10z"/>
<path d="M628 499 c-26 -28 -22 -52 12 -71 38 -22 38 -38 0 -38 -16 0 -30 -4
-30 -10 0 -5 6 -10 14 -10 8 0 16 -6 19 -12 5 -14 57 35 57 53 0 5 -13 18 -30
27 -36 21 -39 42 -5 42 14 0 25 5 25 10 0 6 -7 10 -15 10 -8 0 -15 5 -15 10 0
15 -13 11 -32 -11z"/>
<path d="M883 483 c9 -2 25 -2 35 0 9 3 1 5 -18 5 -19 0 -27 -2 -17 -5z"/>
<path d="M753 473 c-26 -10 -12 -23 26 -23 45 0 62 15 28 24 -25 7 -37 7 -54
-1z"/>
<path d="M878 433 c12 -2 32 -2 45 0 12 2 2 4 -23 4 -25 0 -35 -2 -22 -4z"/>
<path d="M773 423 c9 -2 23 -2 30 0 6 3 -1 5 -18 5 -16 0 -22 -2 -12 -5z"/>
<path d="M832 402 c-12 -2 -20 -8 -17 -13 8 -12 85 -12 85 0 0 11 -37 18 -68
13z"/>
<path d="M758 373 c6 -2 18 -2 25 0 6 3 1 5 -13 5 -14 0 -19 -2 -12 -5z"/>
<path d="M838 353 c12 -2 32 -2 45 0 12 2 2 4 -23 4 -25 0 -35 -2 -22 -4z"/>
<path d="M768 343 c7 -3 16 -2 19 1 4 3 -2 6 -13 5 -11 0 -14 -3 -6 -6z"/>
<path d="M828 303 c7 -3 16 -2 19 1 4 3 -2 6 -13 5 -11 0 -14 -3 -6 -6z"/>
<path d="M868 303 c6 -2 18 -2 25 0 6 3 1 5 -13 5 -14 0 -19 -2 -12 -5z"/>
<path d="M758 293 c6 -2 18 -2 25 0 6 3 1 5 -13 5 -14 0 -19 -2 -12 -5z"/>
<path d="M860 280 l-35 -7 32 -2 c17 0 35 4 38 9 3 6 5 9 3 9 -2 -1 -19 -5
-38 -9z"/>
</g>
</svg>
